# Blender v2.81 (sub 16) OBJ File: 'pyramid.blend'
# www.blender.org
mtllib pyramid.mtl
o Cube
v 36.000000 0.000000 36.000000
v -36.000000 0.000000 36.000000
v 23.573383 0.000000 7.205184
v 26.222851 11.928041 26.222851
v -26.222855 11.928037 26.222855
v 26.222851 11.928040 7.205184
v 36.000000 0.000000 7.205184
v -36.000000 -1.382082 36.000000
v 36.000000 -1.382082 36.000000
v 36.000000 -1.382082 7.205184
v 23.573383 11.928040 7.205184
v 23.573383 0.000000 31.263708
v 23.573383 11.928040 23.591024
v 19.585812 0.000000 31.263708
v 19.585812 11.928040 23.591024
v 22.665672 -0.804562 8.191197
v 38.085049 -0.804562 8.191197
v 22.665672 -0.804562 5.849170
v 25.953224 13.996163 5.849170
v 25.953224 13.996163 8.191197
v 22.665672 13.996163 8.191197
v 38.085049 -0.804562 5.849170
v 22.665672 13.996163 5.849170
v 38.085049 -1.949778 8.191197
v 22.665672 -1.949778 8.191197
v 38.085049 -1.949778 5.849170
v 22.665672 -1.949778 5.849170
v 11.841682 21.436108 16.664330
v 11.841682 0.000000 31.263708
v -16.811598 21.436108 16.664330
v -16.811598 0.000000 31.263708
v -27.911518 8.012950 24.322414
v -27.911518 0.000000 31.263708
v -5.992512 22.089251 17.099133
v -5.992512 22.089251 15.848106
v -7.633814 22.089251 15.848106
v -7.633814 22.089251 17.099133
v -7.633814 -0.317414 32.525928
v -7.633814 -0.317414 15.848106
v -5.992512 -0.317414 15.848106
v -5.992512 -0.317414 32.525928
v -17.122269 22.089251 5.553065
v -5.992511 22.089251 5.553065
v -5.992511 -0.317414 5.553065
v -29.383808 -0.317414 5.553065
v -5.992511 -0.317414 6.729631
v -5.992511 22.089251 6.729631
v -29.383808 -0.317414 6.729631
v -17.122269 22.089251 6.729631
v -5.992511 7.150619 5.553065
v -29.383808 7.150619 5.553065
v -5.992511 7.150619 6.729631
v -29.383808 7.150619 6.729631
v -7.174710 22.663191 16.616455
v -7.174710 14.313392 16.616455
v -6.390066 14.313392 16.616455
v -6.390066 22.663191 16.616455
v 36.000000 0.000000 -36.000000
v -36.000000 0.000000 -36.000000
v 23.573383 0.000000 0.000000
v 23.573383 0.000000 -7.205184
v 0.000000 43.919704 0.000000
v 26.222851 11.928041 -26.222851
v -26.222855 11.928037 -26.222855
v -26.222851 11.928040 0.000000
v 26.222851 11.928040 0.000000
v 26.222851 11.928040 -7.205184
v -36.000000 0.000000 0.000000
v 36.000000 0.000000 -7.205184
v 36.000000 0.000000 0.000000
v -36.000000 -1.382082 0.000000
v -36.000000 -1.382082 -36.000000
v 36.000000 -1.382082 -36.000000
v 36.000000 -1.382082 -7.205184
v 23.573383 11.928040 0.000000
v 36.000000 -1.382082 0.000000
v 23.573383 11.928040 -7.205184
v 23.573383 0.000000 -31.263708
v 23.573383 11.928040 -23.591024
v 19.585812 0.000000 0.000000
v 19.585812 11.928040 0.000000
v 19.585812 0.000000 -31.263708
v 19.585812 11.928040 -23.591024
v 22.665672 -0.804562 -8.191197
v 38.085049 -0.804562 -8.191197
v 22.665672 -0.804562 -5.849170
v 25.953224 13.996163 -5.849170
v 25.953224 13.996163 -8.191197
v 22.665672 13.996163 -8.191197
v 38.085049 -0.804562 -5.849170
v 22.665672 13.996163 -5.849170
v 38.085049 -1.949778 -8.191197
v 22.665672 -1.949778 -8.191197
v 38.085049 -1.949778 -5.849170
v 22.665672 -1.949778 -5.849170
v 11.841682 21.436108 -16.664330
v 11.841682 21.436108 0.000000
v 11.841682 0.000000 0.000000
v 11.841682 0.000000 -31.263708
v -16.811598 21.436108 -16.664330
v -16.811598 21.436108 0.000000
v -16.811598 0.000000 0.000000
v -16.811598 0.000000 -31.263708
v -27.911518 8.012950 -24.322414
v -27.911518 8.012950 0.000000
v -27.911518 0.000000 0.000000
v -27.911518 0.000000 -31.263708
v -5.992512 22.089251 -17.099133
v -5.992512 22.089251 -15.848106
v -7.633814 22.089251 -15.848106
v -7.633814 22.089251 -17.099133
v -7.633814 -0.317414 -32.525928
v -7.633814 -0.317414 -15.848106
v -5.992512 -0.317414 -15.848106
v -5.992512 -0.317414 -32.525928
v -17.122269 22.089251 -5.553065
v -5.992511 22.089251 -5.553065
v -5.992511 -0.317414 -5.553065
v -29.383808 -0.317414 -5.553065
v -5.992511 -0.317414 -6.729631
v -5.992511 22.089251 -6.729631
v -29.383808 -0.317414 -6.729631
v -17.122269 22.089251 -6.729631
v -5.992511 7.150619 -5.553065
v -29.383808 7.150619 -5.553065
v -5.992511 7.150619 -6.729631
v -29.383808 7.150619 -6.729631
v -7.174710 22.663191 -16.616455
v -7.174711 22.663191 0.000000
v -7.174711 14.313392 0.000000
v -7.174710 14.313392 -16.616455
v -6.390067 14.313392 0.000000
v -6.390067 22.663191 0.000000
v -6.390066 14.313392 -16.616455
v -6.390066 22.663191 -16.616455
vt 0.375000 0.750000
vt 0.442897 0.817897
vt 0.442897 1.000000
vt 0.375000 1.000000
vt 0.000000 0.000000
vt 0.000000 0.000000
vt 0.000000 0.000000
vt 0.000000 0.000000
vt 0.375000 0.625000
vt 0.442897 0.658948
vt 0.442897 0.750000
vt 0.375000 0.000000
vt 0.442897 0.033948
vt 0.442897 0.125000
vt 0.375000 0.125000
vt 0.625000 1.000000
vt 0.464198 0.839198
vt 0.464198 0.125000
vt 0.464198 0.044599
vt 0.625000 0.125000
vt 0.464198 1.000000
vt 0.464198 0.669599
vt 0.000000 0.000000
vt 0.000000 0.000000
vt 0.375000 1.000000
vt 0.375000 0.750000
vt 0.125000 0.625000
vt 0.375000 0.625000
vt 0.125000 0.750000
vt 0.375000 0.625000
vt 0.442897 0.658948
vt 0.375000 0.125000
vt 0.375000 0.000000
vt 0.464198 0.669599
vt 0.375000 0.625000
vt 0.442897 0.658948
vt 0.000000 0.000000
vt 0.375000 0.625000
vt 0.442897 0.658948
vt 0.375000 0.625000
vt 0.442897 0.658948
vt 0.464198 0.669599
vt 0.442897 0.658948
vt 0.442897 0.658948
vt 0.375000 0.625000
vt 0.375000 0.625000
vt 0.442897 0.658948
vt 0.375000 0.625000
vt 0.375000 0.625000
vt 0.442897 0.658948
vt 0.375000 0.625000
vt 0.375000 0.625000
vt 0.375000 0.625000
vt 0.375000 0.625000
vt 0.464198 0.669599
vt 0.000000 0.000000
vt 0.442897 0.658948
vt 0.375000 0.625000
vt 0.375000 0.625000
vt 0.442897 0.658948
vt 0.000000 0.000000
vt 0.464198 0.669599
vt 0.000000 0.000000
vt 0.464198 0.669599
vt 0.000000 0.000000
vt 0.000000 0.000000
vt 0.000000 0.000000
vt 0.000000 0.000000
vt 0.000000 0.000000
vt 0.000000 0.000000
vt 0.000000 0.000000
vt 0.000000 0.000000
vt 0.000000 0.000000
vt 0.000000 0.000000
vt 0.000000 0.000000
vt 0.000000 0.000000
vt 0.000000 0.000000
vt 0.000000 0.000000
vt 0.000000 0.000000
vt 0.000000 0.000000
vt 0.000000 0.000000
vt 0.000000 0.000000
vt 0.000000 0.000000
vt 0.000000 0.000000
vt 0.000000 0.000000
vt 0.000000 0.000000
vt 0.000000 0.000000
vt 0.000000 0.000000
vt 0.000000 0.000000
vt 0.000000 0.000000
vt 0.000000 0.000000
vt 0.000000 0.000000
vt 0.375000 0.750000
vt 0.375000 1.000000
vt 0.442897 1.000000
vt 0.442897 0.817897
vt 0.000000 0.000000
vt 0.000000 0.000000
vt 0.375000 0.625000
vt 0.442897 0.750000
vt 0.442897 0.658948
vt 0.375000 0.000000
vt 0.442897 0.033948
vt 0.464198 0.839198
vt 0.464198 0.044599
vt 0.464198 1.000000
vt 0.000000 0.000000
vt 0.375000 0.750000
vt 0.375000 1.000000
vt 0.125000 0.750000
vt 0.375000 0.625000
vt 0.442897 0.658948
vt 0.375000 0.625000
vt 0.375000 0.000000
vt 0.442897 0.658948
vt 0.375000 0.625000
vt 0.375000 0.625000
vt 0.442897 0.658948
vt 0.442897 0.658948
vt 0.375000 0.625000
vt 0.442897 0.658948
vt 0.375000 0.625000
vt 0.375000 0.625000
vt 0.442897 0.658948
vt 0.442897 0.658948
vt 0.442897 0.658948
vt 0.375000 0.625000
vt 0.375000 0.625000
vt 0.375000 0.625000
vt 0.375000 0.625000
vt 0.375000 0.625000
vt 0.375000 0.625000
vt 0.442897 0.658948
vt 0.442897 0.658948
vt 0.375000 0.625000
vt 0.375000 0.625000
vt 0.000000 0.000000
vt 0.000000 0.000000
vt 0.000000 0.000000
vt 0.000000 0.000000
vt 0.000000 0.000000
vt 0.000000 0.000000
vt 0.000000 0.000000
vt 0.000000 0.000000
vt 0.000000 0.000000
vt 0.000000 0.000000
vt 0.000000 0.000000
vt 0.000000 0.000000
vt 0.000000 0.000000
vt 0.000000 0.000000
vt 0.000000 0.000000
vt 0.000000 0.000000
vt 0.000000 0.000000
vt 0.000000 0.000000
vt 0.000000 0.000000
vt 0.000000 0.000000
vt 0.000000 0.000000
vt 0.000000 0.000000
vt 0.000000 0.000000
vt 0.000000 0.000000
vn 0.0000 0.6339 0.7734
vn 1.0000 0.0000 0.0000
vn 0.7734 0.6339 -0.0000
vn -0.7734 0.6339 -0.0000
vn 0.0000 1.0000 0.0000
vn 0.0000 0.0000 1.0000
vn 0.0000 -1.0000 0.0000
vn 0.0000 0.0000 -1.0000
vn -1.0000 0.0000 0.0000
vn 0.0000 -0.5410 -0.8410
vn 0.0311 -0.5549 -0.8313
vn -0.7754 -0.6315 0.0000
vn 0.0783 -0.5886 -0.8046
vn 0.0000 -0.5629 -0.8265
vn 0.7706 -0.6373 0.0000
vn 0.0000 0.6339 -0.7734
vn 0.0000 -0.5410 0.8410
vn 0.0311 -0.5549 0.8313
vn 0.0783 -0.5886 0.8046
vn 0.0000 -0.5629 0.8265
usemtl Material
s off
f 1/1/1 4/2/1 5/3/1 2/4/1
f 7/5/2 10/6/2 76/7/2 70/8/2
f 7/9/3 6/10/3 4/11/3 1/1/3
f 2/12/4 5/13/4 65/14/4 68/15/4
f 6/10/3 62/16/3 4/17/3
f 65/18/4 5/19/4 62/20/4
f 5/21/1 4/17/1 62/16/1
f 6/10/3 66/22/3 62/16/3
f 7/5/5 70/8/5 60/23/5 3/24/5
f 1/1/6 2/4/6 8/25/6 9/26/6
f 71/27/7 10/28/7 9/26/7 8/29/7
f 76/7/7 10/28/7 71/27/7
f 6/10/8 7/9/8 3/30/8 11/31/8
f 7/9/2 1/1/2 9/26/2 10/28/2
f 2/12/9 68/15/9 71/32/9 8/33/9
f 66/22/7 6/10/7 11/31/7 75/34/7
f 11/31/9 3/30/9 12/35/9 13/36/9
f 80/37/5 14/38/5 12/35/5 3/30/5
f 13/36/10 12/35/10 14/38/10 15/39/10
f 15/39/11 14/38/11 29/40/11 28/41/11
f 11/31/7 13/36/7 15/39/7 81/42/7
f 11/31/7 81/42/7 75/34/7
f 60/23/5 80/37/5 3/30/5
f 20/43/6 21/44/6 16/45/6 17/46/6
f 19/47/8 22/48/8 18/49/8 23/50/8
f 20/43/3 17/46/3 22/48/3 19/47/3
f 16/45/9 21/44/9 23/50/9 18/49/9
f 17/46/5 22/48/5 18/49/5 16/45/5
f 21/44/5 20/43/5 19/47/5 23/50/5
f 17/46/6 16/45/6 25/51/6 24/52/6
f 24/52/7 25/51/7 27/53/7 26/54/7
f 16/45/9 18/49/9 27/53/9 25/51/9
f 22/48/2 17/46/2 24/52/2 26/54/2
f 18/49/8 22/48/8 26/54/8 27/53/8
f 81/42/12 15/39/12 28/41/12 97/55/12
f 14/38/5 80/37/5 98/56/5 29/40/5
f 30/57/13 31/58/13 33/59/13 32/60/13
f 29/40/5 98/56/5 102/61/5 31/58/5
f 28/41/14 29/40/14 31/58/14 30/57/14
f 97/55/7 28/41/7 30/57/7 101/62/7
f 32/60/2 33/59/2 106/63/2 105/64/2
f 101/62/15 30/57/15 32/60/15 105/64/15
f 31/58/5 102/61/5 106/63/5 33/59/5
f 38/65/9 37/66/9 36/67/9 39/68/9
f 41/69/2 40/70/2 35/71/2 34/72/2
f 39/68/8 36/67/8 35/71/8 40/70/8
f 50/73/8 51/74/8 42/75/8 43/76/8
f 52/77/6 47/78/6 49/79/6 53/80/6
f 50/73/2 43/76/2 47/78/2 52/77/2
f 44/81/2 50/73/2 52/77/2 46/82/2
f 46/82/6 52/77/6 53/80/6 48/83/6
f 44/81/8 45/84/8 51/74/8 50/73/8
f 130/85/9 55/86/9 54/87/9 129/88/9
f 132/89/2 133/90/2 57/91/2 56/92/2
f 55/86/7 130/85/7 132/89/7 56/92/7
f 58/93/16 59/94/16 64/95/16 63/96/16
f 69/97/2 70/8/2 76/7/2 74/98/2
f 69/99/3 58/93/3 63/100/3 67/101/3
f 59/102/4 68/15/4 65/14/4 64/103/4
f 67/101/3 63/104/3 62/16/3
f 65/18/4 62/20/4 64/105/4
f 64/106/16 62/16/16 63/104/16
f 67/101/3 62/16/3 66/22/3
f 69/97/5 61/107/5 60/23/5 70/8/5
f 58/93/8 73/108/8 72/109/8 59/94/8
f 71/27/7 72/110/7 73/108/7 74/111/7
f 76/7/7 71/27/7 74/111/7
f 67/101/6 77/112/6 61/113/6 69/99/6
f 69/99/2 74/111/2 73/108/2 58/93/2
f 59/102/9 72/114/9 71/32/9 68/15/9
f 66/22/7 75/34/7 77/112/7 67/101/7
f 77/112/9 79/115/9 78/116/9 61/113/9
f 80/37/5 61/113/5 78/116/5 82/117/5
f 79/115/17 83/118/17 82/117/17 78/116/17
f 83/118/18 96/119/18 99/120/18 82/117/18
f 77/112/7 81/42/7 83/118/7 79/115/7
f 77/112/7 75/34/7 81/42/7
f 60/23/5 61/113/5 80/37/5
f 88/121/8 85/122/8 84/123/8 89/124/8
f 87/125/6 91/126/6 86/127/6 90/128/6
f 88/121/3 87/125/3 90/128/3 85/122/3
f 84/123/9 86/127/9 91/126/9 89/124/9
f 85/122/5 84/123/5 86/127/5 90/128/5
f 89/124/5 91/126/5 87/125/5 88/121/5
f 85/122/8 92/129/8 93/130/8 84/123/8
f 92/129/7 94/131/7 95/132/7 93/130/7
f 84/123/9 93/130/9 95/132/9 86/127/9
f 90/128/2 94/131/2 92/129/2 85/122/2
f 86/127/6 95/132/6 94/131/6 90/128/6
f 81/42/12 97/55/12 96/119/12 83/118/12
f 82/117/5 99/120/5 98/56/5 80/37/5
f 100/133/19 104/134/19 107/135/19 103/136/19
f 99/120/5 103/136/5 102/61/5 98/56/5
f 96/119/20 100/133/20 103/136/20 99/120/20
f 97/55/7 101/62/7 100/133/7 96/119/7
f 104/134/2 105/64/2 106/63/2 107/135/2
f 101/62/15 105/64/15 104/134/15 100/133/15
f 103/136/5 107/135/5 106/63/5 102/61/5
f 112/137/9 113/138/9 110/139/9 111/140/9
f 115/141/2 108/142/2 109/143/2 114/144/2
f 113/138/6 114/144/6 109/143/6 110/139/6
f 124/145/6 117/146/6 116/147/6 125/148/6
f 126/149/8 127/150/8 123/151/8 121/152/8
f 124/145/2 126/149/2 121/152/2 117/146/2
f 118/153/2 120/154/2 126/149/2 124/145/2
f 120/154/8 122/155/8 127/150/8 126/149/8
f 118/153/6 124/145/6 125/148/6 119/156/6
f 130/85/9 129/88/9 128/157/9 131/158/9
f 132/89/2 134/159/2 135/160/2 133/90/2
f 131/158/7 134/159/7 132/89/7 130/85/7
